<?xml version="1.0" encoding="utf-8"?>
<!-- Generator: Adobe Illustrator 16.0.0, SVG Export Plug-In . SVG Version: 6.00 Build 0)  -->
<!DOCTYPE svg PUBLIC "-//W3C//DTD SVG 1.1//EN" "http://www.w3.org/Graphics/SVG/1.1/DTD/svg11.dtd">
<svg version="1.1" id="图层_1" xmlns="http://www.w3.org/2000/svg" xmlns:xlink="http://www.w3.org/1999/xlink" x="0px" y="0px"
	 width="200px" height="200px" viewBox="0 0 200 200" enable-background="new 0 0 200 200" xml:space="preserve">
<path d="M100.089,0c-55.229,0-100,44.771-100,100c0,55.229,44.772,100,100,100c55.229,0,100.001-44.771,100.001-100
	C200.09,44.771,155.318,0,100.089,0z M107.762,159.977H91.949v-83h15.813V159.977z M107.04,56.812
	c-1.923,1.893-4.287,2.853-7.028,2.853c-2.685,0-5.008-0.931-6.903-2.766c-1.91-1.848-2.878-4.208-2.878-7.016
	c0-2.801,0.965-5.172,2.87-7.046c1.897-1.866,4.222-2.813,6.912-2.813c2.734,0,5.096,0.944,7.02,2.806
	c1.938,1.875,2.918,4.249,2.918,7.054C109.949,52.582,108.971,54.913,107.04,56.812z"/>
</svg>
