<?xml version="1.0" standalone="no"?>
<svg width="64" height="64" viewBox="0 0 443 384" version="1.1" xmlns="http://www.w3.org/2000/svg">
  <path d="M442 356h1v-330h-1c-1 -11 -10 -21 -22 -21c-1 0 -3 1 -4 1v-1h-393v0c-12 0 -22 10 -23 21v0v2v0v0v328v0c0 13 10 23 23 23v0h393v-1c1 0 3 1 4 1c13 0 22 -10 22 -23zM392 56v272h-341v-218l28 48c1 3 5 5 8 5s6 -2 7 -5v0l19 -33l77 134c2 5 9 10 15 10s11 -4 14 -9 v0l116 -202v0c0 -1 1 -1 1 -2h56zM262 250c0 34 18 52 52 52s52 -18 52 -52s-18 -51 -52 -51s-52 17 -52 51z" transform="matrix(1,0,0,-1,0,384)"/>
</svg>