<?xml version="1.0" standalone="no"?>
<svg width="64" height="64" viewBox="0 0 1024 768" version="1.1" xmlns="http://www.w3.org/2000/svg">
  <path d="M704 768q-54 0 -105.5 -24t-86.5 -66q-35 42 -86.5 66t-105.5 24q-99 0 -167 -67.5t-68 -167.5q0 -34 9.5 -68.5t23.5 -64.5t42.5 -67t53 -65t69.5 -71t78 -73t91 -81l60 -56l60 56q7 6 20 19q51 46 75.5 69t65.5 62.5t60.5 61.5t48.5 55.5t42.5 57.5t28.5 53.5    t20.5 56.5t5.5 55q0 100 -68 167.5t-167 67.5zM516 102h-4l-4 5q-56 50 -84.5 75.5t-71.5 66.5t-64 64.5t-48 56.5t-39.5 57.5t-21 52t-8.5 53.5q0 64 42.5 107t106.5 43q48 0 91 -29t63 -74h81q16 45 58.5 74t90.5 29q64 0 106.5 -43t42.5 -107q0 -25 -8.5 -52.5t-20 -51    t-38.5 -57t-47 -56.5t-62.5 -64t-69 -66t-82.5 -76q-6 -5 -9 -8z" transform="matrix(1,0,0,-1,0,768)"/>
</svg>