<?xml version="1.0" standalone="no"?>
<svg width="64" height="64" viewBox="0 0 1664 1280" version="1.1" xmlns="http://www.w3.org/2000/svg">
  <path d="M768 512v-384q0 -52 -38 -90t-90 -38h-512q-52 0 -90 38t-38 90v384q0 52 38 90t90 38h512q52 0 90 -38t38 -90zM768 1280v-384q0 -52 -38 -90t-90 -38h-512q-52 0 -90 38t-38 90v384q0 52 38 90t90 38h512q52 0 90 -38t38 -90zM1664 512v-384q0 -52 -38 -90t-90 -38 h-512q-52 0 -90 38t-38 90v384q0 52 38 90t90 38h512q52 0 90 -38t38 -90zM1664 1280v-384q0 -52 -38 -90t-90 -38h-512q-52 0 -90 38t-38 90v384q0 52 38 90t90 38h512q52 0 90 -38t38 -90z" transform="matrix(1,0,0,-1,0,1280)"/>
</svg>